<?xml version="1.0" encoding="UTF-8"?>
<svg width="162px" height="28px" viewBox="0 0 162 28" version="1.1" xmlns="http://www.w3.org/2000/svg" xmlns:xlink="http://www.w3.org/1999/xlink">
    <!-- Generator: sketchtool 55 (78076) - https://sketchapp.com -->
    <title>32AEA51E-90DA-478C-9D4B-3D0E5BC4D2C7</title>
    <desc>Created with sketchtool.</desc>
    <g id="Kondotionspflege" stroke="none" stroke-width="1" fill="none" fill-rule="evenodd">
        <g id="Login" transform="translate(-63.000000, -48.000000)" fill="#51516B">
            <g id="logo-neu-white" transform="translate(63.000000, 48.000000)">
                <polygon id="Fill-1" points="77.8445208 23.598606 77.8445208 27.6031368 81.5122522 27.6031368 81.5122522 26.9717656 78.1998963 23.598606"></polygon>
                <path d="M66.7473317,24.1504712 C69.3386914,24.1504712 71.593885,23.0598618 73.1504937,21.2410968 L74.4849127,19.8159645 L71.4113949,16.6850905 L69.6197902,18.5986911 L69.6172289,18.5947937 C68.8469285,19.4060928 67.8198613,19.8179132 66.7473317,19.8179132 C64.5683357,19.8179132 62.5603041,18.0991803 62.5603041,14.805267 C62.5603041,11.4749784 64.5683357,9.79132165 66.7473317,9.79132165 C67.9299957,9.79132165 69.0614345,10.2888838 69.8496637,11.2742647 L77.8440115,19.4236309 L77.8440115,19.4392203 L81.512383,23.1111769 C82.7180984,23.7756757 84.1037427,24.1491721 85.6065648,24.1491721 C90.5331577,24.1491721 94.2501932,20.2108963 94.2501932,14.805267 C94.2501932,9.3619632 90.5331577,5.45941318 85.6065648,5.45941318 C83.2469996,5.45941318 81.1672526,6.35515494 79.6368969,7.88681488 L77.8516953,9.78352694 L80.7606518,12.8916664 C81.2946755,12.1791002 82.5035925,10.7507202 83.9955292,10.1388357 C84.5026597,9.91668652 85.0456478,9.79132165 85.6065648,9.79132165 C87.7855608,9.79132165 89.7935924,11.4743288 89.7935924,14.805267 C89.7935924,18.1336069 87.7855608,19.8166141 85.6065648,19.8166141 C84.4443909,19.8166141 83.330881,19.3274962 82.5445727,18.3713455 L76.1740668,11.5646175 L76.1715056,11.5672157 L72.7669443,7.94007871 C71.233387,6.3778895 69.1337902,5.4607123 66.7473317,5.4607123 C61.8200985,5.4607123 58.103063,9.36261276 58.103063,14.805267 C58.103063,20.2115459 61.8200985,24.1504712 66.7473317,24.1504712" id="Fill-2"></path>
                <path d="M111.805165,5.81413679 L111.805165,8.22789782 C110.370857,6.45330279 108.411489,5.49455379 106.137086,5.49455379 C101.308461,5.49455379 98.0895916,9.50558026 98.0895916,14.8650911 C98.0895916,20.2596781 101.273884,24.3064303 106.137086,24.3064303 C108.411489,24.3064303 110.370857,23.3476813 111.805165,21.5380101 L111.805165,23.9160454 L116.49356,23.9160454 L116.49356,5.81413679 L111.805165,5.81413679 Z M107.606611,20.2954037 C104.737354,20.2954037 102.708192,17.9881703 102.708192,14.8650909 C102.708192,11.7770877 104.66756,9.46985432 107.536817,9.46985432 C109.250943,9.46985432 110.755686,10.4994052 111.805165,11.9544173 L111.805165,17.8108408 C110.790263,19.2665023 109.355955,20.2954037 107.606611,20.2954037 L107.606611,20.2954037 Z M129.894098,24.2707037 C131.224034,24.2707037 132.938161,24.0933741 134.687505,23.5607358 L134.687505,19.2665018 C132.938161,19.9050182 131.818248,20.2954032 130.104121,20.2954032 C126.920469,20.2954032 124.576272,17.917368 124.576272,14.8293649 C124.576272,11.7413618 126.920469,9.43477815 130.104121,9.43477815 C131.818248,9.43477815 132.938161,9.78943731 134.687505,10.4286033 L134.687505,6.06291784 C132.938161,5.67188337 131.224034,5.45947761 129.824303,5.45947761 C124.190801,5.45947761 119.957671,9.25679901 119.957671,14.8293649 C119.957671,20.4727327 124.226019,24.2707037 129.894098,24.2707037 L129.894098,24.2707037 Z M154.980404,14.4032543 C154.980404,8.8664141 151.551511,5.45947761 146.583298,5.45947761 C141.474855,5.45947761 137.626555,9.0086675 137.626555,14.5097819 C137.626555,20.6507119 141.300049,24.2707037 147.632776,24.2707037 C149.032507,24.2707037 151.237116,24.0576484 153.930926,23.2411528 L153.930926,19.2665018 C151.166681,20.3311289 149.522349,20.6507119 148.017606,20.6507119 C144.483701,20.6507119 142.629345,19.301578 142.209938,16.0719711 L154.980404,16.0719711 L154.980404,14.4032543 Z M146.618516,8.79561239 C149.032508,8.79561239 150.397022,10.4286036 150.747275,13.0547704 L142.209939,13.0547704 C142.594769,10.3571521 144.169307,8.79561239 146.618516,8.79561239 L146.618516,8.79561239 Z" id="Fill-7"></path>
                <path d="M17.3542984,14.4035796 C17.3542984,8.86673922 13.9254051,5.45915301 8.95719152,5.45915301 C3.84874871,5.45915301 -0.000192094871,9.00834307 -0.000192094871,14.5101073 C-0.000192094871,20.650388 3.67394238,24.2710295 10.0066698,24.2710295 C11.4064011,24.2710295 13.6103695,24.0579742 16.3048201,23.2414786 L16.3048201,19.2661779 C13.540575,20.330805 11.896243,20.650388 10.3914999,20.650388 C6.85759463,20.650388 5.00323885,19.3019036 4.58319141,16.071647 L17.3542984,16.071647 L17.3542984,14.4035796 Z M8.99176844,8.79528779 C11.4064009,8.79528779 12.7709147,10.428279 13.1205274,13.0550953 L4.5831913,13.0550953 C4.96866166,10.357477 6.54255892,8.79528779 8.99176844,8.79528779 L8.99176844,8.79528779 Z M33.6208918,5.81446174 L33.6208918,17.3850548 C32.3613898,18.9465945 31.1716822,19.9761454 29.5625675,19.9761454 C27.9182355,19.9761454 26.4134924,18.8049906 26.4134924,16.604285 L26.4134924,5.81446174 L21.725097,5.81446174 L21.725097,17.3493291 C21.725097,21.857268 24.5591366,24.271029 27.8132236,24.271029 C30.5422514,24.271029 32.2218008,22.7445655 33.6208918,20.5438599 L33.6208918,23.9157202 L38.2747101,23.9157202 L38.2747101,5.81446174 L33.6208918,5.81446174 Z M48.2130559,9.7540366 L48.2130559,5.81446174 L43.4900834,5.81446174 L43.4900834,23.9157202 L48.2130559,23.9157202 L48.2130559,12.3802033 C49.5429927,10.8543894 51.6771666,10.3574768 55.0708426,10.3574768 L55.0708426,5.45915301 C50.977301,5.45915301 49.1927397,7.65985864 48.2130559,9.7540366 L48.2130559,9.7540366 Z" id="Fill-4"></path>
                <path d="M158.83978,0.649558932 C157.162792,0.649558932 155.855266,1.96166796 155.855266,3.67715307 C155.855266,5.39263819 157.162792,6.71903751 158.83978,6.71903751 C160.502681,6.71903751 161.824294,5.39263819 161.824294,3.67715307 C161.824294,1.96166796 160.502681,0.649558932 158.83978,0.649558932 L158.83978,0.649558932 Z M158.83978,6.24291102 C157.447092,6.24291102 156.366879,5.11852448 156.366879,3.67715317 C156.366879,2.26436246 157.447092,1.12503607 158.83978,1.12503607 C160.232468,1.12503607 161.298595,2.26436246 161.298595,3.67715317 C161.298595,5.11852448 160.232468,6.24291102 158.83978,6.24291102 L158.83978,6.24291102 Z M160.161393,3.05682435 C160.161393,2.50924615 159.677954,2.06234958 159.024832,2.06234958 L157.674405,2.06234958 L157.674405,5.13281481 L158.41333,5.13281481 L158.41333,4.08052928 L158.796879,4.08052928 L159.379567,5.13281481 L160.275369,5.13281481 L159.450642,4.00842824 C159.877092,3.84993585 160.161393,3.47514033 160.161393,3.05682435 L160.161393,3.05682435 Z M158.41333,2.63915792 L158.98193,2.63915792 C159.280318,2.63915792 159.479456,2.84052119 159.479456,3.07176418 C159.479456,3.28741775 159.280318,3.53295104 158.98193,3.53295104 L158.41333,3.53295104 L158.41333,2.63915792 Z" id="Fill-9"></path>
            </g>
        </g>
    </g>
</svg>